<svg width="23" height="23" viewBox="0 0 23 23" fill="none" xmlns="http://www.w3.org/2000/svg">
<g clip-path="url(#clip0_27_283)">
<path d="M7.66667 8.625C7.66667 8.096 8.06342 7.66667 8.55217 7.66667H11.2527C11.7434 7.66667 12.1383 8.096 12.1383 8.625C12.1383 9.154 11.7434 9.58333 11.2527 9.58333H8.55217C8.06342 9.58333 7.66667 9.154 7.66667 8.625ZM14.3875 13.4167H8.61158C8.08929 13.4167 7.66667 13.845 7.66667 14.375C7.66667 14.905 8.08929 15.3333 8.61158 15.3333H14.3865C14.9097 15.3333 15.3333 14.904 15.3333 14.375C15.3333 13.846 14.9097 13.4167 14.3875 13.4167ZM23 4.79167V18.2083C23 20.8543 20.8552 23 18.2083 23H4.79167C2.14475 23 0 20.8543 0 18.2083V4.79167C0 2.14571 2.14475 0 4.79167 0H18.2083C20.8552 0 23 2.14571 23 4.79167ZM19.1667 10.3615C19.1667 9.94175 18.8274 9.6025 18.4096 9.6025H17.1628C16.5245 9.6025 16.4067 9.11471 16.4067 8.51192C16.4067 5.92825 14.3156 3.83333 11.7367 3.83333H8.50329C5.92442 3.83333 3.83333 5.92825 3.83333 8.51288V14.4871C3.83333 17.0717 5.92442 19.1667 8.50329 19.1667H14.4977C17.0756 19.1667 19.1667 17.0717 19.1667 14.4871V10.3615Z" fill="#FF7525"/>
</g>
<defs>
<clipPath id="clip0_27_283">
<rect width="23" height="23" fill="white"/>
</clipPath>
</defs>
</svg>
