<svg width="22" height="22" viewBox="0 0 22 22" fill="none" xmlns="http://www.w3.org/2000/svg">
<mask id="mask0_27_89" style="mask-type:alpha" maskUnits="userSpaceOnUse" x="0" y="0" width="22" height="22">
<rect width="22" height="22" fill="#FF7525"/>
</mask>
<g mask="url(#mask0_27_89)">
<path d="M9.71671 15.2154L16.1792 8.75286L14.8959 7.46953L9.71671 12.6487L7.10421 10.0362L5.82087 11.3195L9.71671 15.2154ZM11 20.1654C9.73199 20.1654 8.54032 19.9246 7.42504 19.443C6.30976 18.9621 5.33962 18.3091 4.51462 17.4841C3.68962 16.6591 3.03665 15.689 2.55571 14.5737C2.07415 13.4584 1.83337 12.2668 1.83337 10.9987C1.83337 9.73064 2.07415 8.53898 2.55571 7.4237C3.03665 6.30842 3.68962 5.33828 4.51462 4.51328C5.33962 3.68828 6.30976 3.035 7.42504 2.55345C8.54032 2.0725 9.73199 1.83203 11 1.83203C12.2681 1.83203 13.4598 2.0725 14.575 2.55345C15.6903 3.035 16.6605 3.68828 17.4855 4.51328C18.3105 5.33828 18.9634 6.30842 19.4444 7.4237C19.9259 8.53898 20.1667 9.73064 20.1667 10.9987C20.1667 12.2668 19.9259 13.4584 19.4444 14.5737C18.9634 15.689 18.3105 16.6591 17.4855 17.4841C16.6605 18.3091 15.6903 18.9621 14.575 19.443C13.4598 19.9246 12.2681 20.1654 11 20.1654ZM11 18.332C13.0473 18.332 14.7813 17.6216 16.2021 16.2008C17.623 14.7799 18.3334 13.0459 18.3334 10.9987C18.3334 8.95148 17.623 7.21745 16.2021 5.79661C14.7813 4.37578 13.0473 3.66536 11 3.66536C8.95282 3.66536 7.21879 4.37578 5.79796 5.79661C4.37712 7.21745 3.66671 8.95148 3.66671 10.9987C3.66671 13.0459 4.37712 14.7799 5.79796 16.2008C7.21879 17.6216 8.95282 18.332 11 18.332Z" fill="#FF7525"/>
</g>
</svg>
