<svg width="23" height="23" viewBox="0 0 23 23" fill="none" xmlns="http://www.w3.org/2000/svg">
<g clip-path="url(#clip0_27_275)">
<path d="M18.2083 0H4.79167C2.14571 0 0 2.14571 0 4.79167V18.2083C0 20.8543 2.14571 23 4.79167 23H18.2083C20.8552 23 23 20.8543 23 18.2083V4.79167C23 2.14571 20.8552 0 18.2083 0ZM8.30587 15.9725C5.83242 15.9725 3.83333 13.9725 3.83333 11.5C3.83333 9.0275 5.83242 7.02746 8.30587 7.02746C9.51337 7.02746 10.5225 7.46829 11.3026 8.19663L10.0884 9.36579C9.75583 9.04667 9.17412 8.67579 8.30587 8.67579C6.77925 8.67579 5.53342 9.94079 5.53342 11.5C5.53342 13.0592 6.77925 14.3242 8.30587 14.3242C10.0759 14.3242 10.74 13.0525 10.8426 12.3951H8.30587V10.8617H12.5283C12.5676 11.085 12.5992 11.3093 12.5992 11.6025C12.5983 14.1575 10.8867 15.9725 8.30587 15.9725ZM19.1667 12.1392H17.25V14.0559H15.9716V12.1392H14.0549V10.8617H15.9716V8.94508H17.25V10.8617H19.1667V12.1392Z" fill="#EA3323"/>
</g>
<defs>
<clipPath id="clip0_27_275">
<rect width="23" height="23" fill="white"/>
</clipPath>
</defs>
</svg>
