<svg width="23" height="23" viewBox="0 0 23 23" fill="none" xmlns="http://www.w3.org/2000/svg">
<g clip-path="url(#clip0_27_279)">
<path d="M18.2083 0H4.79167C2.14571 0 0 2.14571 0 4.79167V18.2083C0 20.8543 2.14571 23 4.79167 23H18.2083C20.8552 23 23 20.8543 23 18.2083V4.79167C23 2.14571 20.8552 0 18.2083 0ZM18.0751 8.85213C18.2754 13.2768 14.9759 18.2103 9.13387 18.2103C7.35712 18.2103 5.704 17.6899 4.31154 16.7967C5.98096 16.9932 7.64654 16.5303 8.96904 15.4943C7.59192 15.4685 6.43042 14.559 6.03079 13.3093C6.52433 13.4032 7.00925 13.3755 7.45104 13.2557C5.93783 12.9519 4.89421 11.5891 4.92775 10.1315C5.35133 10.3672 5.83721 10.5091 6.35183 10.5254C4.95171 9.58908 4.55496 7.7395 5.37817 6.325C6.92971 8.22825 9.24792 9.48079 11.8623 9.61208C11.4032 7.64462 12.8972 5.75 14.928 5.75C15.8317 5.75 16.6501 6.13142 17.2232 6.74379C17.94 6.60292 18.6137 6.34129 19.2222 5.98096C18.9865 6.716 18.4882 7.33221 17.8394 7.72129C18.4757 7.64463 19.0823 7.47596 19.6458 7.22583C19.2251 7.8545 18.6913 8.40842 18.0751 8.85213Z" fill="#5B9AD1"/>
</g>
<defs>
<clipPath id="clip0_27_279">
<rect width="23" height="23" fill="white"/>
</clipPath>
</defs>
</svg>
