<svg width="23" height="23" viewBox="0 0 23 23" fill="none" xmlns="http://www.w3.org/2000/svg">
<g clip-path="url(#clip0_27_281)">
<path d="M9.58333 8.94413L14.6941 11.4952L9.58333 14.0559V8.94413ZM23 4.79167V18.2083C23 20.8543 20.8552 23 18.2083 23H4.79167C2.14571 23 0 20.8543 0 18.2083V4.79167C0 2.14571 2.14571 0 4.79167 0H18.2083C20.8552 0 23 2.14571 23 4.79167ZM19.1667 11.5C19.1475 7.54879 18.8571 6.0375 16.3655 5.86788C14.0626 5.71071 8.93454 5.71167 6.6355 5.86788C4.14575 6.0375 3.8525 7.54208 3.83333 11.5C3.8525 15.4512 4.14287 16.9625 6.63454 17.1321C8.93358 17.2883 14.0616 17.2893 16.3645 17.1321C18.8542 16.9625 19.1475 15.4579 19.1667 11.5Z" fill="#EA3323"/>
</g>
<defs>
<clipPath id="clip0_27_281">
<rect width="23" height="23" fill="white"/>
</clipPath>
</defs>
</svg>
